<svg viewBox="0 0 120 120" width="120" height="120" fill="none" xmlns="http://www.w3.org/2000/svg"><rect x="22" y="28" width="76" height="50" rx="17" fill="#E8F5EC"></rect><path d="M44 76 L39 94 L60 78 Z" fill="#E8F5EC"></path><path d="M60 38 C63.3 49.7 63.3 49.7 75 53 C63.3 56.3 63.3 56.3 60 68 C56.7 56.3 56.7 56.3 45 53 C56.7 49.7 56.7 49.7 60 38 Z" fill="#2BB673"></path><path d="M80 33 C81.1 36.9 81.1 36.9 85 38 C81.1 39.1 81.1 39.1 80 43 C78.9 39.1 78.9 39.1 75 38 C78.9 36.9 78.9 36.9 80 33 Z" fill="#87D1F5"></path></svg>